<svg width="16" height="14" viewBox="0 0 16 14" fill="none" xmlns="http://www.w3.org/2000/svg">
<path d="M15.968 0.683975C15.9554 0.624929 15.9273 0.570323 15.8865 0.525831C15.8457 0.48134 15.7937 0.448586 15.736 0.430975C15.5258 0.389053 15.3081 0.404599 15.106 0.475975C15.106 0.475975 1.08701 5.51397 0.286008 6.07197C0.114008 6.19297 0.0560079 6.26197 0.0270079 6.34397C-0.110992 6.74397 0.320008 6.91697 0.320008 6.91697L3.93301 8.09397C3.99401 8.10498 4.05676 8.10121 4.11601 8.08297C4.93801 7.56397 12.386 2.86097 12.816 2.70297C12.884 2.68297 12.934 2.70297 12.916 2.75197C12.744 3.35197 6.31001 9.07098 6.27501 9.10598C6.25794 9.12024 6.24456 9.13842 6.23603 9.15896C6.2275 9.17951 6.22406 9.20181 6.22601 9.22398L5.88901 12.752C5.88901 12.752 5.74701 13.852 6.84501 12.752C7.62401 11.973 8.37201 11.327 8.74501 11.014C9.98701 11.872 11.324 12.82 11.901 13.314C11.9976 13.4081 12.1123 13.4817 12.2381 13.5303C12.3639 13.5789 12.4982 13.6016 12.633 13.597C12.799 13.5765 12.9548 13.506 13.0798 13.3949C13.2048 13.2838 13.2931 13.1374 13.333 12.975C13.333 12.975 15.894 2.69997 15.979 1.31697C15.987 1.18197 16 1.09997 16 0.999975C16.0037 0.893679 15.9929 0.787379 15.968 0.683975Z" fill="#0A121E"/>
</svg>
