<svg width="28" height="28" viewBox="0 0 28 28" fill="none" xmlns="http://www.w3.org/2000/svg">
<g clip-path="url(#clip0)">
<path d="M23.5249 27.0664H3.59585C2.8897 27.0664 2.21249 26.7467 1.71317 26.1777C1.21385 25.6087 0.933334 24.8369 0.933334 24.0322H20.8623C20.8623 24.8369 21.1428 25.6087 21.6421 26.1777C22.1415 26.7467 22.8187 27.0664 23.5249 27.0664Z" stroke="#040F1F" stroke-width="2"/>
<path d="M6.63536 21.2131C6.52654 22.197 6.39595 23.1394 6.26537 24.0323H20.8621C20.8621 24.837 21.1425 25.6088 21.6419 26.1777C22.1412 26.7468 22.8184 27.0664 23.5246 27.0664C27.3696 27.0664 27.0504 17.0132 27.0649 12.6729C27.0738 8.73825 26.7825 4.81022 26.1944 0.933105H6.26537C6.48301 2.3799 6.67164 3.95071 6.82398 5.629" stroke="#040F1F" stroke-width="2"/>
<path d="M11.3361 6.83643H9.53689C8.62734 6.83643 7.89003 7.6748 7.89003 8.70899C7.89003 9.74319 8.62734 10.5816 9.53689 10.5816H11.3361C12.2456 10.5816 12.9829 9.74319 12.9829 8.70899C12.9829 7.6748 12.2456 6.83643 11.3361 6.83643Z" stroke="#040F1F" stroke-width="2"/>
<path d="M15.7762 8.71289H5.09717C4.18765 8.71289 3.45033 9.55314 3.45033 10.5896V17.8566C3.45033 18.8931 4.18765 19.7334 5.09717 19.7334H15.7762C16.6858 19.7334 17.4231 18.8931 17.4231 17.8566V10.5896C17.4231 9.55314 16.6858 8.71289 15.7762 8.71289Z" fill="#1673FF"/>
</g>
<defs>
<clipPath id="clip0">
<rect width="28" height="28" fill="white"/>
</clipPath>
</defs>
</svg>
