<svg width="27" height="28" viewBox="0 0 27 28" fill="none" xmlns="http://www.w3.org/2000/svg">
<g clip-path="url(#clip0)">
<path d="M8.86435 8.43814C8.67217 8.27681 8.45911 8.13968 8.23036 8.03012C7.98105 7.90772 7.72461 7.79211 7.4468 7.6765C7.22297 7.597 7.01737 7.47692 6.8413 7.32289C6.77739 7.25607 6.72808 7.17774 6.69629 7.0925C6.66448 7.00726 6.65082 6.91682 6.6561 6.82647C6.64151 6.64908 6.70033 6.4733 6.81994 6.33685C6.8766 6.27593 6.9472 6.2283 7.02626 6.19763C7.10533 6.16698 7.19072 6.1541 7.27583 6.16004C7.37462 6.15373 7.47339 6.17242 7.56219 6.21421C7.65099 6.256 7.72667 6.31941 7.7816 6.39805C7.91413 6.60131 7.97643 6.83918 7.95968 7.07808H9.4698C9.49923 6.58539 9.33399 6.1001 9.00684 5.71802C8.74057 5.43259 8.38646 5.23499 7.99529 5.15359V4.18115H6.70596V5.15359C6.31284 5.22173 5.9476 5.39371 5.6517 5.65001C5.48561 5.80266 5.3548 5.98678 5.2677 6.19057C5.1806 6.39434 5.13912 6.61327 5.14594 6.83327C5.1396 7.08486 5.18811 7.33496 5.28841 7.5677C5.38319 7.77158 5.52431 7.95278 5.70156 8.09813C5.89189 8.26172 6.1053 8.39906 6.33555 8.50614C6.58724 8.62401 6.85793 8.73962 7.14761 8.85295C7.37667 8.92947 7.58567 9.05242 7.76022 9.21338C7.88205 9.36485 7.94273 9.55317 7.93119 9.74384C7.94005 9.91753 7.87888 10.0879 7.76022 10.2198C7.69706 10.2778 7.62213 10.3228 7.54004 10.352C7.45795 10.3812 7.37046 10.3942 7.28296 10.3898C7.1631 10.3971 7.04307 10.3783 6.93198 10.3346C6.8209 10.2911 6.72167 10.2239 6.64185 10.1382C6.47285 9.92638 6.39168 9.66246 6.4139 9.397H4.91087C4.8836 9.91735 5.07018 10.4273 5.43088 10.8182C5.77092 11.1532 6.22095 11.3668 6.70596 11.4235V12.2939H7.99529V11.3827C8.35553 11.3128 8.68698 11.1452 8.94983 10.8999C9.11205 10.7454 9.23895 10.5605 9.32229 10.3569C9.40572 10.1531 9.44379 9.93514 9.43425 9.71656C9.44199 9.46203 9.39087 9.20895 9.28467 8.97537C9.18297 8.77162 9.04014 8.58905 8.86435 8.43814Z" fill="#1673FF"/>
<path d="M7.18994 14.2452C10.6638 14.2452 13.4799 11.5568 13.4799 8.2405C13.4799 4.92422 10.6638 2.23584 7.18994 2.23584C3.7161 2.23584 0.899994 4.92422 0.899994 8.2405C0.899994 11.5568 3.7161 14.2452 7.18994 14.2452Z" stroke="#040F1F" stroke-width="2"/>
<path d="M12.1333 0.90332H23.2173L20.831 17.7829L24.3001 17.8713L13.8856 26.1936L6.32065 17.4156L9.78974 17.5041" stroke="#040F1F" stroke-width="2"/>
</g>
<defs>
<clipPath id="clip0">
<rect width="27" height="28" fill="white"/>
</clipPath>
</defs>
</svg>
