<svg width="26" height="28" viewBox="0 0 26 28" fill="none" xmlns="http://www.w3.org/2000/svg">
<g clip-path="url(#clip0)">
<path d="M20.5578 3.88867C20.9839 7.25139 21.1957 10.6386 21.1919 14.0291C21.1901 18.3969 20.8375 22.7573 20.1375 27.0668H22.873C23.4714 9.2124 25.4305 6.95253 26.0005 3.88867H20.5578Z" fill="#1673FF"/>
<path d="M1.85715 0.933105H20.0158C20.7203 5.25428 21.0753 9.62692 21.0773 14.0071C21.0729 18.3751 20.7179 22.7354 20.0158 27.0447H1.85715C2.69219 22.5075 3.09063 17.8984 3.04683 13.2827C3.02242 10.5677 2.84165 7.85657 2.50542 5.16311" stroke="#040F1F" stroke-width="2"/>
<path d="M6.21028 9.06721L7.76328 10.6534L10.7126 7.65479" stroke="#040F1F" stroke-width="2"/>
<path d="M13.1696 9.1543H17.9069" stroke="#040F1F" stroke-width="2"/>
<path d="M6.21028 17.2883L7.76328 18.8674L10.7126 15.8687" stroke="#040F1F" stroke-width="2"/>
<path d="M13.1696 17.3682H17.9069" stroke="#040F1F" stroke-width="2"/>
</g>
<defs>
<clipPath id="clip0">
<rect width="26" height="28" fill="white"/>
</clipPath>
</defs>
</svg>
